<?xml version="1.0" encoding="utf-8"?>
<!-- Generator: Adobe Illustrator 14.0.0, SVG Export Plug-In . SVG Version: 6.00 Build 43363)  -->
<!DOCTYPE svg PUBLIC "-//W3C//DTD SVG 1.1//EN" "http://www.w3.org/Graphics/SVG/1.1/DTD/svg11.dtd">
<svg version="1.1" id="Layer_1" xmlns="http://www.w3.org/2000/svg" xmlns:xlink="http://www.w3.org/1999/xlink" x="0px" y="0px"
	 width="16px" height="16px" fill="#000000" viewBox="0 0 16 16" enable-background="new 0 0 16 16" xml:space="preserve">
<path d="M12,14c0,1.104-0.896,2-2,2H2c-1.104,0-2-0.896-2-2V6c0-1.104,0.896-2,2-2h8c1.104,0,2,0.896,2,2V14z M10,15
	c0.553,0,1-0.447,1-1V6c0-0.553-0.447-1-1-1H2C1.447,5,1,5.447,1,6v8c0,0.553,0.447,1,1,1H10z M14,11c0.553,0,1-0.447,1-1V2
	c0-0.553-0.447-1-1-1H6C5.447,1,5,1.447,5,2v1H4V2c0-1.104,0.896-2,2-2h8c1.104,0,2,0.896,2,2v8c0,1.104-0.896,2-2,2h-1v-1H14z"/>
</svg>
